# xmcd
#
# Track frame offsets:
#	150
#	26787
#	42536
#	68933
#	81293
#	101632
#	114332
#	132704
#	150346
#	171553
#	192513
#	219115
#	235882
#	262189
#	278586
#	301695
#	316775
#	336584
#
# Disc length: 4639 seconds
#
# Revision: 1
# Processed by: cddbd v1.5.2PL0 Copyright (c) Steve Scherf et al.
# Submitted via: audiograbber 1.83.01
#
DISCID=09121d12
DTITLE=Calvin Russel - Soldier - Same
DYEAR=1900
DGENRE=Country
TTITLE0=Soldier
TTITLE1=Stranger
TTITLE2=Characters
TTITLE3=I dreamed I saw
TTITLE4=Rats and roaches
TTITLE5=Down in Texas
TTITLE6=Shakles and chains
TTITLE7=This could be the day
TTITLE8=This is your world (Memphis Mix)
TTITLE9=Let the music play
TTITLE10=Nothin´ can save me
TTITLE11=I want to change the world
TTITLE12=Desperation
TTITLE13=Lovin´ you
TTITLE14=Mr. Mudd and Mr. Cold
TTITLE15=Love is so
TTITLE16=Time flies
TTITLE17=Cut the silver strings
EXTD=
EXTT0=
EXTT1=
EXTT2=
EXTT3=
EXTT4=
EXTT5=
EXTT6=
EXTT7=
EXTT8=
EXTT9=
EXTT10=
EXTT11=
EXTT12=
EXTT13=
EXTT14=
EXTT15=
EXTT16=
EXTT17=
PLAYORDER=
